<svg xmlns="http://www.w3.org/2000/svg" width="1024" height="1024" viewBox="0 0 1024 1024" role="img" aria-label="Solvem launcher icon">
  <rect width="1024" height="1024" rx="224" fill="#191c1d"/>
  <rect x="86" y="86" width="852" height="852" rx="188" fill="#2e3132" opacity="0.34"/>
  <rect x="86" y="86" width="852" height="852" rx="188" fill="none" stroke="#807660" stroke-width="14" opacity="0.78"/>
  <g opacity="0.22" stroke="#d1c5ab" stroke-width="4" fill="none">
    <path d="M228 512H796"/><path d="M512 228V796"/><path d="M282 282L742 742"/><path d="M742 282L282 742"/>
  </g>
  <g fill="#f5c400">
    <path d="M351 328H657V263L810 412L657 561V496H408L324 412Z"/>
    <path d="M408 496H569L700 625L618 708L487 579H326Z" fill="#f1c100"/>
    <path d="M326 708H618L700 625L785 708L661 832H242Z"/>
    <path d="M324 412L408 328H505L421 412L505 496H408Z" fill="#ffe08b" opacity="0.52"/>
    <path d="M569 496H657L700 625L618 708L618 581Z" fill="#006d3a" opacity="0.3"/>
  </g>
  <g fill="#f5c400" opacity="0.82">
    <rect x="214" y="505" width="74" height="16" rx="8"/><rect x="302" y="505" width="70" height="16" rx="8"/>
    <rect x="166" y="568" width="118" height="16" rx="8"/><rect x="302" y="568" width="86" height="16" rx="8"/>
    <rect x="236" y="631" width="126" height="16" rx="8"/>
  </g>
</svg>
